<svg width="20" height="20" fill="none" xmlns="http://www.w3.org/2000/svg">
  <mask id="a" fill="#fff">
    <path fill-rule="evenodd" clip-rule="evenodd" d="M9.815 2.632c.062.065.122.13.18.198L10 2.825l.004.005a5.72 5.72 0 0 1 .181-.198c2.147-2.24 5.628-2.24 7.774 0 2.147 2.24 2.147 5.872 0 8.111a5.705 5.705 0 0 1-.189.189l.004.005L10 19.048l-7.774-8.111.004-.005a5.649 5.649 0 0 1-.19-.189c-2.146-2.24-2.146-5.871 0-8.111 2.147-2.24 5.628-2.24 7.775 0Z" />
  </mask>
  <path fill-rule="evenodd" clip-rule="evenodd" d="M9.815 2.632c.062.065.122.13.18.198L10 2.825l.004.005a5.72 5.72 0 0 1 .181-.198c2.147-2.24 5.628-2.24 7.774 0 2.147 2.24 2.147 5.872 0 8.111a5.705 5.705 0 0 1-.189.189l.004.005L10 19.048l-7.774-8.111.004-.005a5.649 5.649 0 0 1-.19-.189c-2.146-2.24-2.146-5.871 0-8.111 2.147-2.24 5.628-2.24 7.775 0Z" fill="#EC1F44" />
  <path d="M9.996 2.83 8.489 4.145l1.437 1.647 1.514-1.579L9.996 2.83Zm-.181-.198L8.37 4.016l1.444-1.384Zm.185.193 1.444-1.384L10-.065 8.556 1.44 10 2.825Zm.004.005L8.56 4.213l1.513 1.58 1.438-1.648-1.507-1.315Zm.181-.198 1.444 1.384-1.444-1.384Zm7.774 0 1.444-1.384-1.444 1.384Zm0 8.111 1.444 1.384-1.444-1.384Zm-.189.189-1.378-1.45-1.456 1.384 1.39 1.45 1.444-1.384Zm.004.005 1.444 1.383 1.327-1.384-1.327-1.383-1.444 1.384ZM10 19.048l-1.444 1.384L10 21.938l1.444-1.506L10 19.048Zm-7.774-8.111L.782 9.553l-1.327 1.384L.782 12.32l1.444-1.383Zm.004-.005 1.444 1.384 1.39-1.45-1.457-1.384-1.377 1.45Zm-.19-.189L.598 12.127l1.444-1.384Zm0-8.111 1.444 1.384-1.443-1.384Zm9.463-1.117c-.08-.09-.16-.18-.244-.267L8.37 4.016c.04.042.08.085.118.129l3.014-2.63ZM8.556 1.44l-.004.005 2.888 2.767.004-.004L8.556 1.44Zm2.892.005-.004-.005L8.556 4.21l.004.004 2.888-2.767Zm.063 2.699c.038-.044.078-.087.118-.13L8.741 1.249a7.725 7.725 0 0 0-.244.267l3.014 2.63Zm.118-.13c1.36-1.418 3.527-1.418 4.886 0l2.888-2.767a7.337 7.337 0 0 0-10.662 0l2.888 2.768Zm4.886 0c1.406 1.467 1.406 3.878 0 5.345l2.888 2.767c2.889-3.013 2.889-7.865 0-10.879l-2.887 2.768Zm0 5.345c-.04.042-.081.083-.123.122l2.755 2.9a7.78 7.78 0 0 0 .256-.255L16.516 9.36Zm2.703.193-.004-.005-2.888 2.768.005.005 2.887-2.768Zm-7.774 10.879 7.774-8.112-2.888-2.767-7.774 8.111 2.888 2.768ZM.782 12.32l7.774 8.112 2.888-2.768L3.67 9.553.782 12.32Zm.004-2.772-.004.005L3.67 12.32l.004-.004L.786 9.548Zm-.19 2.58c.084.087.17.171.257.254l2.754-2.9a3.703 3.703 0 0 1-.123-.122L.597 12.127Zm0-10.88c-2.888 3.014-2.888 7.866 0 10.88L3.485 9.36c-1.405-1.467-1.405-3.878 0-5.344L.597 1.248Zm10.663 0a7.337 7.337 0 0 0-10.662 0l2.887 2.768c1.36-1.419 3.527-1.419 4.887 0l2.888-2.768Z" fill="#F3F4F7" mask="url(#a)" />
</svg>