<svg width="20" height="20" viewBox="0 0 20 20" fill="none" xmlns="http://www.w3.org/2000/svg">
<mask id="path-1-inside-1_41:220" fill="white">
<path fill-rule="evenodd" clip-rule="evenodd" d="M9.81486 2.63197C9.87691 2.69671 9.93717 2.76261 9.99563 2.82961L9.99996 2.82509L10.0043 2.82961C10.0628 2.76261 10.123 2.69671 10.1851 2.63197C12.3319 0.392047 15.8126 0.392047 17.9594 2.63197C20.1062 4.87188 20.1062 8.50351 17.9594 10.7434C17.8973 10.8082 17.8342 10.871 17.77 10.932L17.7743 10.9366L9.99996 19.048L2.22563 10.9366L2.22996 10.932C2.16575 10.871 2.10259 10.8082 2.04054 10.7434C-0.106285 8.50351 -0.106285 4.87188 2.04054 2.63197C4.18736 0.392047 7.66804 0.392047 9.81486 2.63197Z"/>
</mask>
<path fill-rule="evenodd" clip-rule="evenodd" d="M9.81486 2.63197C9.87691 2.69671 9.93717 2.76261 9.99563 2.82961L9.99996 2.82509L10.0043 2.82961C10.0628 2.76261 10.123 2.69671 10.1851 2.63197C12.3319 0.392047 15.8126 0.392047 17.9594 2.63197C20.1062 4.87188 20.1062 8.50351 17.9594 10.7434C17.8973 10.8082 17.8342 10.871 17.77 10.932L17.7743 10.9366L9.99996 19.048L2.22563 10.9366L2.22996 10.932C2.16575 10.871 2.10259 10.8082 2.04054 10.7434C-0.106285 8.50351 -0.106285 4.87188 2.04054 2.63197C4.18736 0.392047 7.66804 0.392047 9.81486 2.63197Z" fill="#EC1F44"/>
<path d="M9.99563 2.82961L8.48869 4.14457L9.92649 5.79229L11.4396 4.21343L9.99563 2.82961ZM9.81486 2.63197L8.37096 4.01585L8.37096 4.01586L9.81486 2.63197ZM9.99996 2.82509L11.4439 1.44127L9.99996 -0.0654469L8.556 1.44127L9.99996 2.82509ZM10.0043 2.82961L8.56033 4.21343L10.0734 5.79229L11.5112 4.14457L10.0043 2.82961ZM10.1851 2.63197L11.629 4.01586L11.629 4.01585L10.1851 2.63197ZM17.9594 2.63197L19.4033 1.24808L19.4033 1.24808L17.9594 2.63197ZM17.9594 10.7434L19.4033 12.1273L19.4033 12.1273L17.9594 10.7434ZM17.77 10.932L16.3925 9.48197L14.9358 10.8657L16.3262 12.3161L17.77 10.932ZM17.7743 10.9366L19.2182 12.3204L20.5447 10.9364L19.2181 9.55253L17.7743 10.9366ZM9.99996 19.048L8.55606 20.4319L9.99996 21.9384L11.4439 20.4319L9.99996 19.048ZM2.22563 10.9366L0.781676 9.55272L-0.544585 10.9366L0.781732 12.3204L2.22563 10.9366ZM2.22996 10.932L3.67392 12.3159L5.06388 10.8655L3.6074 9.48198L2.22996 10.932ZM2.04054 10.7434L0.596634 12.1273L0.596637 12.1273L2.04054 10.7434ZM2.04054 2.63197L3.48444 4.01585L2.04054 2.63197ZM11.5026 1.51465C11.4237 1.42424 11.3424 1.33535 11.2588 1.24807L8.37096 4.01586C8.41141 4.05806 8.45065 4.10098 8.48869 4.14457L11.5026 1.51465ZM8.556 1.44127L8.55167 1.44578L11.4396 4.21343L11.4439 4.20892L8.556 1.44127ZM11.4483 1.44578L11.4439 1.44127L8.556 4.20892L8.56033 4.21343L11.4483 1.44578ZM11.5112 4.14457C11.5493 4.10098 11.5885 4.05806 11.629 4.01586L8.74116 1.24807C8.65751 1.33535 8.57623 1.42424 8.49735 1.51465L11.5112 4.14457ZM11.629 4.01585C12.9884 2.59742 15.156 2.59742 16.5155 4.01585L19.4033 1.24808C16.4691 -1.81332 11.6753 -1.81332 8.74116 1.24808L11.629 4.01585ZM16.5155 4.01585C17.9208 5.48215 17.9208 7.89324 16.5155 9.35954L19.4033 12.1273C22.2916 9.11378 22.2916 4.26162 19.4033 1.24808L16.5155 4.01585ZM16.5155 9.35954C16.475 9.40175 16.434 9.44255 16.3925 9.48197L19.1474 12.3821C19.2343 12.2995 19.3196 12.2146 19.4033 12.1273L16.5155 9.35954ZM19.2181 9.55253L19.2137 9.54802L16.3262 12.3161L16.3305 12.3206L19.2181 9.55253ZM11.4439 20.4319L19.2182 12.3204L16.3304 9.55267L8.55606 17.6641L11.4439 20.4319ZM0.781732 12.3204L8.55606 20.4319L11.4439 17.6641L3.66954 9.55267L0.781732 12.3204ZM0.786006 9.54821L0.781676 9.55272L3.66959 12.3204L3.67392 12.3159L0.786006 9.54821ZM0.596637 12.1273C0.680286 12.2146 0.765608 12.2995 0.852525 12.3821L3.6074 9.48198C3.56589 9.44255 3.52488 9.40174 3.48443 9.35954L0.596637 12.1273ZM0.596634 1.24808C-2.29165 4.26161 -2.29165 9.11378 0.596634 12.1273L3.48444 9.35954C2.07908 7.89324 2.07908 5.48216 3.48444 4.01585L0.596634 1.24808ZM11.2588 1.24808C8.3246 -1.81332 3.53079 -1.81332 0.596634 1.24808L3.48444 4.01585C4.84392 2.59742 7.01148 2.59742 8.37096 4.01585L11.2588 1.24808Z" fill="#F3F4F7" mask="url(#path-1-inside-1_41:220)"/>
</svg>
