<svg width="16" height="17" viewBox="0 0 16 17" fill="none" xmlns="http://www.w3.org/2000/svg">
<path fill-rule="evenodd" clip-rule="evenodd" d="M9.53553 10.0858C11.246 8.3753 11.4581 5.7339 10.1719 3.79253L3.2423 10.7221C5.18367 12.0084 7.82507 11.7962 9.53553 10.0858ZM1.82808 9.30794L8.7577 2.37832C6.81634 1.09211 4.17493 1.30424 2.46447 3.0147C0.754004 4.72516 0.541877 7.36657 1.82808 9.30794ZM1.75736 2.30759C3.85959 0.205365 7.13367 -0.0107835 9.47687 1.65915L10.2426 0.893377L11.6569 2.30759L10.8911 3.07336C11.9543 4.56518 12.2529 6.43432 11.7871 8.13814L15.8995 13.6213L13.0711 16.4497L7.58793 12.3374C5.8841 12.8032 4.01495 12.5045 2.52313 11.4413L1.75736 12.2071L0.343149 10.7929L1.10891 10.0271C-0.561015 7.6839 -0.344867 4.40982 1.75736 2.30759Z" fill="#B7BFCD"/>
</svg>
