<svg width="16" height="17" viewBox="0 0 16 17" fill="none" xmlns="http://www.w3.org/2000/svg">
<path fill-rule="evenodd" clip-rule="evenodd" d="M9.53552 10.0858C11.246 8.37532 11.4581 5.73392 10.1719 3.79255L3.24229 10.7222C5.18366 12.0084 7.82506 11.7962 9.53552 10.0858ZM1.82807 9.30796L8.7577 2.37834C6.81633 1.09213 4.17492 1.30426 2.46446 3.01472C0.753994 4.72518 0.541867 7.36659 1.82807 9.30796ZM1.75735 2.30761C3.85958 0.205386 7.13366 -0.0107628 9.47686 1.65917L10.2426 0.893398L11.6568 2.30761L10.8911 3.07338C11.9543 4.5652 12.2529 6.43434 11.7871 8.13816L15.8995 13.6213L13.0711 16.4497L7.58792 12.3374C5.88409 12.8032 4.01494 12.5045 2.52312 11.4413L1.75735 12.2071L0.343139 10.7929L1.1089 10.0271C-0.561025 7.68392 -0.344877 4.40984 1.75735 2.30761Z" fill="#4B586C"/>
</svg>
