<svg width="95" height="28" viewBox="0 0 95 28" fill="none" xmlns="http://www.w3.org/2000/svg">
<path d="M7.29 11.241C7.29 11.655 7.497 11.862 7.911 11.862H20.007C20.421 11.862 20.727 12.006 20.925 12.294C21.123 12.582 21.222 12.924 21.222 13.32C21.222 13.716 21.123 14.058 20.925 14.346C20.727 14.634 20.421 14.778 20.007 14.778H6.075C5.211 14.778 4.608 14.616 4.266 14.292C3.942 13.968 3.78 13.383 3.78 12.537V4.167C3.78 3.663 3.951 3.294 4.293 3.06C4.653 2.826 5.067 2.709 5.535 2.709C6.003 2.709 6.408 2.826 6.75 3.06C7.11 3.294 7.29 3.663 7.29 4.167V11.241ZM2.079 22.743C1.665 22.743 1.359 22.599 1.161 22.311C0.963 22.023 0.864 21.681 0.864 21.285C0.864 20.889 0.963 20.547 1.161 20.259C1.359 19.971 1.665 19.827 2.079 19.827H10.557V13.347H14.013V19.827H22.491C22.905 19.827 23.211 19.971 23.409 20.259C23.607 20.547 23.706 20.889 23.706 21.285C23.706 21.681 23.607 22.023 23.409 22.311C23.211 22.599 22.905 22.743 22.491 22.743H2.079ZM26.9772 19.152C26.1132 19.152 25.5102 18.99 25.1682 18.666C24.8442 18.342 24.6822 17.757 24.6822 16.911V11.943C24.6822 11.097 24.8442 10.512 25.1682 10.188C25.5102 9.864 26.1132 9.702 26.9772 9.702H30.5952C31.0092 9.702 31.2162 9.495 31.2162 9.081V6.732C31.2162 6.318 31.0092 6.111 30.5952 6.111H25.8702C25.4562 6.111 25.1502 5.967 24.9522 5.679C24.7542 5.391 24.6552 5.049 24.6552 4.653C24.6552 4.257 24.7542 3.915 24.9522 3.627C25.1502 3.339 25.4562 3.195 25.8702 3.195H32.2422C33.1062 3.195 33.7002 3.357 34.0242 3.681C34.3662 4.005 34.5372 4.59 34.5372 5.436V10.269C34.5372 11.115 34.3662 11.7 34.0242 12.024C33.7002 12.348 33.1062 12.51 32.2422 12.51H28.6242C28.2102 12.51 28.0032 12.717 28.0032 13.131V15.615C28.0032 16.029 28.2102 16.236 28.6242 16.236C29.5962 16.236 30.6042 16.209 31.6482 16.155C32.7102 16.101 33.6732 16.011 34.5372 15.885C34.9512 15.831 35.2752 15.93 35.5092 16.182C35.7432 16.416 35.8782 16.731 35.9142 17.127C35.9502 17.541 35.8962 17.901 35.7522 18.207C35.6082 18.513 35.3382 18.702 34.9422 18.774C34.3662 18.864 33.4212 18.954 32.1072 19.044C30.7932 19.116 29.0832 19.152 26.9772 19.152ZM40.2072 9.486H42.3672V2.709C42.3672 2.241 42.5292 1.899 42.8532 1.683C43.1772 1.467 43.5462 1.359 43.9602 1.359C44.3742 1.359 44.7432 1.467 45.0672 1.683C45.3912 1.899 45.5532 2.241 45.5532 2.709V23.607C45.5532 24.075 45.3912 24.417 45.0672 24.633C44.7432 24.849 44.3742 24.957 43.9602 24.957C43.5462 24.957 43.1772 24.849 42.8532 24.633C42.5292 24.417 42.3672 24.075 42.3672 23.607V12.402H40.2072V22.473C40.2072 22.941 40.0452 23.283 39.7212 23.499C39.3972 23.715 39.0282 23.823 38.6142 23.823C38.2182 23.823 37.8582 23.715 37.5342 23.499C37.2102 23.283 37.0482 22.941 37.0482 22.473V2.979C37.0482 2.511 37.2102 2.169 37.5342 1.953C37.8582 1.737 38.2182 1.629 38.6142 1.629C39.0282 1.629 39.3972 1.737 39.7212 1.953C40.0452 2.169 40.2072 2.511 40.2072 2.979V9.486ZM48.9054 7.11C48.4914 7.11 48.1854 6.966 47.9874 6.678C47.7894 6.39 47.6904 6.048 47.6904 5.652C47.6904 5.256 47.7894 4.914 47.9874 4.626C48.1854 4.338 48.4914 4.194 48.9054 4.194H53.0904V2.547C53.0904 2.043 53.2614 1.674 53.6034 1.44C53.9634 1.206 54.3684 1.089 54.8184 1.089C55.2684 1.089 55.6644 1.206 56.0064 1.44C56.3664 1.674 56.5464 2.043 56.5464 2.547V4.194H60.4614C60.8754 4.194 61.1814 4.338 61.3794 4.626C61.5774 4.914 61.6764 5.256 61.6764 5.652C61.6764 6.048 61.5774 6.39 61.3794 6.678C61.1814 6.966 60.8754 7.11 60.4614 7.11H56.5464V7.731C56.5464 8.415 56.6634 8.982 56.8974 9.432C57.1494 9.882 57.5364 10.296 58.0584 10.674C58.6884 11.124 59.2644 11.52 59.7864 11.862C60.3084 12.204 60.7314 12.474 61.0554 12.672C61.4334 12.906 61.6494 13.23 61.7034 13.644C61.7574 14.04 61.6764 14.409 61.4604 14.751C61.2624 15.039 60.9654 15.264 60.5694 15.426C60.1914 15.57 59.7864 15.507 59.3544 15.237C58.9944 15.003 58.5894 14.742 58.1394 14.454C57.6894 14.166 57.2484 13.869 56.8164 13.563C56.1324 13.095 55.6554 12.717 55.3854 12.429C55.1154 12.141 54.9444 11.88 54.8724 11.646H54.8454C54.7734 11.952 54.5844 12.267 54.2784 12.591C53.9904 12.897 53.5044 13.284 52.8204 13.752C52.2804 14.112 51.7674 14.454 51.2814 14.778C50.7954 15.102 50.2734 15.435 49.7154 15.777C49.5174 15.903 49.3194 15.975 49.1214 15.993C48.9234 15.993 48.7344 15.957 48.5544 15.885C48.3744 15.813 48.2124 15.714 48.0684 15.588C47.9244 15.462 47.8074 15.327 47.7174 15.183C47.5194 14.841 47.4294 14.472 47.4474 14.076C47.4654 13.662 47.6814 13.329 48.0954 13.077C48.6714 12.717 49.2384 12.357 49.7964 11.997C50.3544 11.637 50.9484 11.232 51.5784 10.782C52.1004 10.404 52.4784 9.99 52.7124 9.54C52.9644 9.09 53.0904 8.523 53.0904 7.839V7.11H48.9054ZM69.3714 7.164C69.8034 7.164 70.1184 7.308 70.3164 7.596C70.5144 7.884 70.6134 8.235 70.6134 8.649C70.6134 9.063 70.5144 9.423 70.3164 9.729C70.1184 10.017 69.8034 10.161 69.3714 10.161H66.8334V14.67C66.8334 15.174 66.6534 15.543 66.2934 15.777C65.9514 16.011 65.5554 16.128 65.1054 16.128C64.6554 16.128 64.2504 16.011 63.8904 15.777C63.5484 15.543 63.3774 15.174 63.3774 14.67V2.817C63.3774 2.313 63.5484 1.944 63.8904 1.71C64.2504 1.476 64.6554 1.359 65.1054 1.359C65.5554 1.359 65.9514 1.476 66.2934 1.71C66.6534 1.944 66.8334 2.313 66.8334 2.817V7.164H69.3714ZM60.5694 20.07V20.178C60.5694 20.592 60.7404 20.952 61.0824 21.258C61.4244 21.546 61.9194 21.816 62.5674 22.068C63.4134 22.41 64.1604 22.698 64.8084 22.932C65.4744 23.166 66.1944 23.409 66.9684 23.661C67.3284 23.787 67.5714 24.021 67.6974 24.363C67.8234 24.705 67.8144 25.056 67.6704 25.416C67.5264 25.758 67.3104 26.028 67.0224 26.226C66.7344 26.424 66.3744 26.451 65.9424 26.307C65.2224 26.073 64.5294 25.839 63.8634 25.605C63.1974 25.371 62.5134 25.11 61.8114 24.822C60.7314 24.39 59.9844 23.994 59.5704 23.634C59.1744 23.292 58.9404 22.995 58.8684 22.743H58.8414C58.7694 23.013 58.5264 23.328 58.1124 23.688C57.6984 24.066 56.9514 24.471 55.8714 24.903C55.1694 25.191 54.4854 25.452 53.8194 25.686C53.1534 25.92 52.4604 26.154 51.7404 26.388C51.3084 26.532 50.9484 26.505 50.6604 26.307C50.3724 26.109 50.1564 25.83 50.0124 25.47C49.8684 25.11 49.8504 24.75 49.9584 24.39C50.0844 24.03 50.3364 23.787 50.7144 23.661C51.4884 23.409 52.1994 23.166 52.8474 22.932C53.5134 22.698 54.2694 22.41 55.1154 22.068C55.7634 21.816 56.2584 21.546 56.6004 21.258C56.9424 20.952 57.1134 20.592 57.1134 20.178V20.07H51.5514C51.1374 20.07 50.8314 19.935 50.6334 19.665C50.4534 19.377 50.3634 19.044 50.3634 18.666C50.3634 18.27 50.4534 17.937 50.6334 17.667C50.8314 17.379 51.1374 17.235 51.5514 17.235H66.1314C66.5454 17.235 66.8424 17.379 67.0224 17.667C67.2204 17.937 67.3194 18.27 67.3194 18.666C67.3194 19.044 67.2204 19.377 67.0224 19.665C66.8424 19.935 66.5454 20.07 66.1314 20.07H60.5694ZM73.0477 6.138C72.6337 6.138 72.3277 5.994 72.1297 5.706C71.9317 5.418 71.8327 5.076 71.8327 4.68C71.8327 4.266 71.9317 3.915 72.1297 3.627C72.3277 3.339 72.6337 3.195 73.0477 3.195H81.1747C82.0387 3.195 82.6327 3.357 82.9567 3.681C83.2987 4.005 83.4697 4.59 83.4697 5.436V8.433C83.4697 9.189 83.4247 9.873 83.3347 10.485C83.2447 11.097 83.0737 11.682 82.8217 12.24C82.5877 12.78 82.2547 13.311 81.8227 13.833C81.3907 14.355 80.8237 14.904 80.1217 15.48C79.4197 16.056 78.5647 16.677 77.5567 17.343C76.5667 18.009 75.3877 18.756 74.0197 19.584C73.6417 19.818 73.2457 19.863 72.8317 19.719C72.4357 19.557 72.1297 19.314 71.9137 18.99C71.6977 18.666 71.5897 18.288 71.5897 17.856C71.5897 17.424 71.7877 17.082 72.1837 16.83C73.4077 16.092 74.4517 15.444 75.3157 14.886C76.1977 14.31 76.9267 13.797 77.5027 13.347C78.0967 12.897 78.5557 12.483 78.8797 12.105C79.2217 11.727 79.4737 11.349 79.6357 10.971C79.8157 10.575 79.9237 10.17 79.9597 9.756C80.0137 9.342 80.0407 8.865 80.0407 8.325V6.759C80.0407 6.345 79.8337 6.138 79.4197 6.138H73.0477ZM91.2187 23.499C91.2187 24.003 91.0387 24.372 90.6787 24.606C90.3367 24.84 89.9317 24.957 89.4637 24.957C89.0137 24.957 88.6087 24.84 88.2487 24.606C87.9067 24.372 87.7357 24.003 87.7357 23.499V2.817C87.7357 2.313 87.9067 1.944 88.2487 1.71C88.6087 1.476 89.0137 1.359 89.4637 1.359C89.9317 1.359 90.3367 1.476 90.6787 1.71C91.0387 1.944 91.2187 2.313 91.2187 2.817V23.499Z" fill="#2A313C"/>
</svg>
